<svg width="290" height="96" viewBox="0 0 290 96" fill="none" xmlns="http://www.w3.org/2000/svg">
<rect x="9" y="9" width="281" height="87" rx="14" fill="black"/>
<g filter="url(#filter0_d_41_95)">
<rect x="4" width="281" height="87" rx="14" fill="#F2EEE3"/>
<rect x="4.5" y="0.5" width="280" height="86" rx="13.5" stroke="black"/>
</g>
<g filter="url(#filter1_d_41_95)">
<rect x="241" y="8" width="36" height="32" rx="8" fill="black"/>
</g>
<path d="M262.83 14.8638L268.119 20.1526C268.282 20.3153 268.282 20.5792 268.119 20.7419C268.057 20.8043 267.976 20.8453 267.889 20.8589L266.66 21.051L261.946 16.3369L262.123 15.0995C262.156 14.8717 262.367 14.7134 262.594 14.7459C262.684 14.7587 262.766 14.8 262.83 14.8638ZM252.829 30.7899C255.931 28.0136 259.492 27.1834 263.365 26.1894L263.737 22.8416L260.156 19.2604L256.808 19.6324C255.814 23.5057 254.984 27.0663 252.207 30.1682L251.045 29.0059C253.402 26.256 254.286 23.2116 255.464 18.1047L260.768 17.5154L265.482 22.2295L264.893 27.5328C259.786 28.7113 256.741 29.5952 253.991 31.9522L252.829 30.7899ZM257.232 25.765C256.581 25.1141 256.581 24.0589 257.232 23.408C257.883 22.7571 258.938 22.7571 259.589 23.408C260.24 24.0589 260.24 25.1141 259.589 25.765C258.938 26.4159 257.883 26.4159 257.232 25.765Z" fill="#F2EEE3"/>
<path d="M210.761 29.6103L212.234 28.1371L213.707 29.6103C214.521 30.4239 214.521 31.7429 213.707 32.5565C212.894 33.3701 211.574 33.3701 210.761 32.5565C209.947 31.7429 209.947 30.4239 210.761 29.6103ZM202.137 14.8998L211.565 24.3279C211.89 24.6533 211.89 25.1809 211.565 25.5064L204.494 32.5774C204.168 32.9029 203.641 32.9029 203.315 32.5774L196.244 25.5064C195.919 25.1809 195.919 24.6533 196.244 24.3279L202.726 17.8461L200.958 16.0783L202.137 14.8998ZM203.904 19.0246L198.012 24.9171H209.797L203.904 19.0246Z" fill="black"/>
<path d="M220 26.2505L216.818 23.0685L217.879 22.0078L220 24.1292L222.121 22.0078L223.182 23.0685L220 26.2505Z" fill="black"/>
<path d="M205 54.3431L201.15 58.4437C199.024 60.7083 199.024 64.38 201.15 66.6447C203.276 68.9094 206.724 68.9094 208.85 66.6447C210.976 64.38 210.976 60.7083 208.85 58.4437L205 54.3431ZM205 52L209.95 57.2721C212.683 60.1838 212.683 64.9046 209.95 67.8162C207.216 70.7279 202.784 70.7279 200.05 67.8162C197.317 64.9046 197.317 60.1838 200.05 57.2721L205 52ZM201.111 62.5441H208.889C208.889 64.8318 207.148 66.6863 205 66.6863C202.852 66.6863 201.111 64.8318 201.111 62.5441Z" fill="black"/>
<path d="M220 63.2505L216.818 60.0685L217.879 59.0078L220 61.1292L222.121 59.0078L223.182 60.0685L220 63.2505Z" fill="black"/>
<path d="M250.435 61.1924L252.203 62.9601C246.192 68.9706 241.243 68.9706 237 67.5563L252.556 52L256.092 55.5355L250.435 61.1924ZM247.607 61.1924L253.263 55.5355L252.556 54.8284L241.059 66.3261C243.79 66.4335 246.416 65.4197 249.325 62.9107L247.607 61.1924Z" fill="black"/>
<path d="M262 63.2505L258.818 60.0685L259.879 59.0078L262 61.1292L264.121 59.0078L265.182 60.0685L262 63.2505Z" fill="black"/>
<path d="M157.773 28.5H163.7V30.3H155.6C155.103 30.3 154.7 29.8971 154.7 29.4V19.5H152V17.7H154.7V15H156.5V27.2272L164.227 19.5H158.3V17.7H166.027L168.328 15.3993L169.601 16.6721L167.3 18.9728V28.5H170V30.3H167.3V33H165.5V20.7728L157.773 28.5Z" fill="black"/>
<path d="M175.957 26.4306L172.52 22.9941L173.666 21.8485L175.957 24.1396L178.248 21.8485L179.393 22.9941L175.957 26.4306Z" fill="black"/>
<path d="M175.957 63.4306L172.52 59.9941L173.666 58.8485L175.957 61.1396L178.248 58.8485L179.393 59.9941L175.957 63.4306Z" fill="black"/>
<path d="M155.457 67.5741L164.021 59.0104L162.607 57.5962L154.043 66.1599L155.457 67.5741ZM161.192 56.182L159.778 54.7678L161.192 53.3536L162.96 55.1213L165.789 52.2929C166.179 51.9024 166.812 51.9024 167.203 52.2929L169.324 54.4142C169.715 54.8047 169.715 55.4379 169.324 55.8284L166.496 58.6568L168.264 60.4246L166.849 61.8388L165.435 60.4246L156.243 69.617H152V65.3743L161.192 56.182Z" fill="black"/>
<path d="M121.607 27.0182L123.513 25.112L120.654 22.2526L123.831 19.0756L121.924 17.1694L118.747 20.3464L115.888 17.4871L113.982 19.3933L121.607 27.0182ZM120.336 28.289L112.711 20.6641L110.169 23.2058L117.794 30.8306L120.336 28.289ZM118.747 17.8048L121.289 15.2632C121.64 14.9123 122.209 14.9123 122.56 15.2632L125.737 18.4402C126.088 18.7911 126.088 19.3601 125.737 19.711L123.195 22.2526L125.419 24.4766C125.77 24.8275 125.77 25.3965 125.419 25.7474L118.43 32.7368C118.079 33.0877 117.51 33.0877 117.159 32.7368L108.263 23.8412C107.912 23.4903 107.912 22.9213 108.263 22.5704L115.253 15.5809C115.604 15.23 116.173 15.23 116.523 15.5809L118.747 17.8048Z" fill="black"/>
<path d="M131.957 26.4306L128.52 22.9941L129.666 21.8485L131.957 24.1396L134.248 21.8485L135.393 22.9941L131.957 26.4306Z" fill="black"/>
<path d="M114.225 57.7272L109.369 62.7291L114.465 67.9783L115.612 67.9776V67.9764H116.762L120.469 64.1583L114.225 57.7272ZM115.612 56.298L121.856 62.7291L124.631 59.8709L118.388 53.4397L115.612 56.298ZM119.537 67.9764H126.405V69.9975H117.575L113.653 70L107.287 63.4437C106.904 63.0491 106.904 62.4093 107.287 62.0146L117.694 51.296C118.077 50.9013 118.698 50.9013 119.081 51.296L126.713 59.1563C127.096 59.5509 127.096 60.1908 126.713 60.5854L119.537 67.9764Z" fill="black"/>
<path d="M131.957 63.4306L128.52 59.9941L129.666 58.8485L131.957 61.1396L134.248 58.8485L135.393 59.9941L131.957 63.4306Z" fill="black"/>
<path d="M73.5 24.801L71.0739 27.2398C71.4082 27.8084 71.6 28.4718 71.6 29.1802C71.6 31.2898 69.8987 33 67.8 33C65.7013 33 64 31.2898 64 29.1802C64 27.0706 65.7013 25.3604 67.8 25.3604C68.5047 25.3604 69.1646 25.5532 69.7304 25.8893L72.1565 23.4506L66.4367 17.701C65.6947 16.9551 65.6947 15.7459 66.4367 15L73.5 22.1001L80.5632 15C81.3053 15.7459 81.3053 16.9551 80.5632 17.701L74.8435 23.4506L77.2696 25.8893C77.8353 25.5532 78.4953 25.3604 79.2 25.3604C81.2986 25.3604 83 27.0706 83 29.1802C83 31.2898 81.2986 33 79.2 33C77.1014 33 75.4 31.2898 75.4 29.1802C75.4 28.4718 75.5918 27.8084 75.9261 27.2398L73.5 24.801ZM67.8 31.0901C68.8493 31.0901 69.7 30.2351 69.7 29.1802C69.7 28.1254 68.8493 27.2703 67.8 27.2703C66.7507 27.2703 65.9 28.1254 65.9 29.1802C65.9 30.2351 66.7507 31.0901 67.8 31.0901ZM79.2 31.0901C80.2494 31.0901 81.1 30.2351 81.1 29.1802C81.1 28.1254 80.2494 27.2703 79.2 27.2703C78.1506 27.2703 77.3 28.1254 77.3 29.1802C77.3 30.2351 78.1506 31.0901 79.2 31.0901Z" fill="black"/>
<path d="M87.9566 26.4306L84.52 22.9941L85.6655 21.8485L87.9566 24.1396L90.2476 21.8485L91.3931 22.9941L87.9566 26.4306Z" fill="black"/>
<path d="M68.5357 63.6072L66.4144 65.7286L69.2428 68.557L80.5564 57.2433L77.7281 54.4148L75.6067 56.5362L77.0209 57.9504L75.6067 59.3646L74.1925 57.9504L72.7783 59.3646L74.1925 60.7788L72.7783 62.193L71.3641 60.7788L69.9499 62.193L71.3641 63.6072L69.9499 65.0214L68.5357 63.6072ZM78.4352 52.2935L82.6778 56.5362C83.0683 56.9267 83.0683 57.5599 82.6778 57.9504L69.9499 70.6783C69.5594 71.0688 68.9262 71.0688 68.5357 70.6783L64.293 66.4357C63.9025 66.0451 63.9025 65.412 64.293 65.0214L77.0209 52.2935C77.4114 51.903 78.0447 51.903 78.4352 52.2935ZM75.6067 67.8494L77.0209 66.4352L79.2634 68.6777H80.6777V67.2635L78.4352 65.021L79.8493 63.6067L82.4851 66.2424V70.4858H78.2431L75.6067 67.8494ZM67.1213 59.364L64.2929 56.5355C63.9024 56.145 63.9024 55.5118 64.2929 55.1213L67.1213 52.2929C67.5118 51.9024 68.145 51.9024 68.5355 52.2929L71.364 55.1213L69.9498 56.5355L67.8284 54.4142L66.4142 55.8284L68.5355 57.9497L67.1213 59.364Z" fill="black"/>
<path d="M87.9566 63.4306L84.52 59.9941L85.6655 58.8485L87.9566 61.1396L90.2476 58.8485L91.3931 59.9941L87.9566 63.4306Z" fill="black"/>
<path d="M43.9566 26.4306L40.52 22.9941L41.6655 21.8485L43.9566 24.1396L46.2476 21.8485L47.3931 22.9941L43.9566 26.4306Z" fill="black"/>
<path d="M27.2427 21H37.2427C37.7949 21 38.2427 21.4477 38.2427 22V32C38.2427 32.5523 37.7949 33 37.2427 33H27.2427C26.6904 33 26.2426 32.5523 26.2426 32V22C26.2426 21.4477 26.6904 21 27.2427 21ZM28.2427 23V31H36.2427V23H28.2427ZM22.2426 22.5858L24.0711 20.7574L25.4853 22.1716L21.2426 26.4142L17 22.1716L18.4142 20.7574L20.2426 22.5858V20C20.2426 17.2386 22.4812 15 25.2426 15H29.2427V17H25.2426C23.5858 17 22.2426 18.3432 22.2426 20V22.5858Z" fill="black"/>
<path d="M43.9566 63.4306L40.52 59.9941L41.6655 58.8485L43.9566 61.1396L46.2476 58.8485L47.3931 59.9941L43.9566 63.4306Z" fill="black"/>
<path d="M21 54V68H35V54H21ZM20 52H36C36.5523 52 37 52.4477 37 53V69C37 69.5523 36.5523 70 36 70H20C19.4477 70 19 69.5523 19 69V53C19 52.4477 19.4477 52 20 52ZM25.8688 64L25.0492 66H22.8333L27 56H29L33.1667 66H30.9508L30.1311 64H25.8688ZM26.6885 62H29.3115L28 58.8L26.6885 62Z" fill="black"/>
<defs>
<filter id="filter0_d_41_95" x="0" y="0" width="289" height="95" filterUnits="userSpaceOnUse" color-interpolation-filters="sRGB">
<feFlood flood-opacity="0" result="BackgroundImageFix"/>
<feColorMatrix in="SourceAlpha" type="matrix" values="0 0 0 0 0 0 0 0 0 0 0 0 0 0 0 0 0 0 127 0" result="hardAlpha"/>
<feOffset dy="4"/>
<feGaussianBlur stdDeviation="2"/>
<feComposite in2="hardAlpha" operator="out"/>
<feColorMatrix type="matrix" values="0 0 0 0 0 0 0 0 0 0 0 0 0 0 0 0 0 0 0.1 0"/>
<feBlend mode="normal" in2="BackgroundImageFix" result="effect1_dropShadow_41_95"/>
<feBlend mode="normal" in="SourceGraphic" in2="effect1_dropShadow_41_95" result="shape"/>
</filter>
<filter id="filter1_d_41_95" x="237" y="8" width="44" height="40" filterUnits="userSpaceOnUse" color-interpolation-filters="sRGB">
<feFlood flood-opacity="0" result="BackgroundImageFix"/>
<feColorMatrix in="SourceAlpha" type="matrix" values="0 0 0 0 0 0 0 0 0 0 0 0 0 0 0 0 0 0 127 0" result="hardAlpha"/>
<feOffset dy="4"/>
<feGaussianBlur stdDeviation="2"/>
<feComposite in2="hardAlpha" operator="out"/>
<feColorMatrix type="matrix" values="0 0 0 0 0 0 0 0 0 0 0 0 0 0 0 0 0 0 0.15 0"/>
<feBlend mode="normal" in2="BackgroundImageFix" result="effect1_dropShadow_41_95"/>
<feBlend mode="normal" in="SourceGraphic" in2="effect1_dropShadow_41_95" result="shape"/>
</filter>
</defs>
</svg>
