<svg width="250" height="250" viewBox="0 0 250 250" fill="none" xmlns="http://www.w3.org/2000/svg">
<rect width="250" height="250" rx="125" fill="#2AAD5F"/>
<path fill-rule="evenodd" clip-rule="evenodd" d="M72.7113 86.1522C63.5704 95.587 59 108.37 59 124.5C59 140.63 63.5704 153.413 72.7113 162.848C82.007 172.283 94.4789 177 110.127 177H139.873C155.676 177 168.148 172.283 177.289 162.848C186.43 153.413 191 140.63 191 124.5C191 108.37 186.43 95.587 177.289 86.1522C168.148 76.7174 155.676 72 139.873 72H110.127C94.4789 72 82.007 76.7174 72.7113 86.1522ZM106.667 89.3478C89.9601 89.3478 76.4167 102.838 76.4167 119.478V129.522C76.4167 146.162 89.9601 159.652 106.667 159.652H143.333C160.04 159.652 173.583 146.162 173.583 129.522V119.478C173.583 102.838 160.04 89.3478 143.333 89.3478H106.667Z" fill="#F2EEE3"/>
</svg>
