<svg width="318" height="113" viewBox="0 0 318 113" fill="none" xmlns="http://www.w3.org/2000/svg">
<g clip-path="url(#clip0_53_55)">
<path fill-rule="evenodd" clip-rule="evenodd" d="M291.277 46.1291C294.881 48.1907 298.362 50.1911 301.863 52.1914C304.443 53.6815 307.022 55.1512 309.602 56.6412C314.27 59.4173 316.973 63.5201 317.874 68.8272C317.976 69.3987 317.976 70.0111 317.976 70.603C317.997 76.5429 318.017 82.4828 317.976 88.4227C317.956 92.4438 316.42 95.9138 313.82 98.9552C312.428 100.588 310.708 101.772 308.865 102.834C304.333 105.419 299.809 108.018 295.29 110.631C292.322 112.366 289.107 113.142 285.688 112.978C283.19 112.835 280.794 112.182 278.604 110.937C272.775 107.617 266.967 104.269 261.18 100.894C260.32 100.404 259.706 100.302 258.764 100.854C253.092 104.181 247.38 107.426 241.688 110.692C238.74 112.386 235.566 113.142 232.188 112.978C229.26 112.815 226.578 111.835 224.059 110.366C219.452 107.692 214.805 105.12 210.239 102.364C204.854 99.1389 201.947 94.3421 201.865 88.0348C201.803 82.3603 201.865 76.6858 201.865 70.9908C201.844 66.9493 203.257 63.3976 205.837 60.295C207.188 58.6824 208.847 57.4577 210.669 56.4167C216.381 53.1508 222.073 49.8441 227.786 46.5782C228.4 46.2312 228.564 45.8433 228.564 45.1901C228.543 38.4542 228.461 31.7182 228.584 24.9823C228.686 18.9199 231.348 14.1027 236.528 10.898C240.685 8.32614 244.984 5.97877 249.223 3.54974C250.349 2.91697 251.454 2.26379 252.601 1.67184C254.423 0.753305 256.368 0.28383 258.395 0.0797109C262.163 -0.287704 265.582 0.630834 268.817 2.50873C273.342 5.12146 277.846 7.73419 282.391 10.3061C286.138 12.3881 288.759 15.4091 290.274 19.369C290.929 21.1244 291.277 22.9411 291.277 24.7782C291.298 31.5141 291.298 38.2501 291.298 44.986C291.277 45.333 291.277 45.7004 291.277 46.1291ZM259.869 89.6474C259.992 89.6066 260.033 89.6066 260.054 89.5861C265.787 86.2998 271.56 83.0747 277.232 79.6863C280.364 77.8084 282.002 74.9304 282.002 71.2358C282.023 64.9285 282.002 58.6212 282.023 52.3343C282.023 51.6811 281.839 51.3341 281.265 51.0075C275.799 47.8845 270.352 44.6798 264.845 41.5976C261.548 39.7401 258.129 39.8218 254.833 41.6997C249.427 44.7615 244.063 47.8845 238.678 50.9463C238.043 51.2933 237.798 51.6811 237.818 52.416C237.839 58.6008 237.839 64.806 237.818 71.0113C237.818 75.012 239.64 77.9309 243.019 79.9517C244.534 80.8498 246.069 81.7071 247.585 82.5644C251.679 84.9322 255.754 87.2796 259.869 89.6474ZM228.543 56.7637C228.113 56.9883 227.847 57.1107 227.601 57.274C223.465 59.6418 219.371 62.0504 215.214 64.3774C212.471 65.9491 211.037 68.2761 211.017 71.3787C210.955 76.8287 210.976 82.2787 211.017 87.7287C211.037 90.7292 212.409 93.0358 215.009 94.5462C219.821 97.3223 224.612 100.119 229.465 102.854C231.84 104.181 234.358 104.242 236.753 102.915C241.196 100.445 245.578 97.853 249.98 95.3219C250.164 95.2198 250.308 95.0566 250.512 94.9137C250.246 94.73 250.062 94.5871 249.878 94.4646C246.11 92.3214 242.364 90.1577 238.596 88.0144C235.586 86.2998 233.129 83.9933 231.328 81.0335C229.444 77.9105 228.564 74.5017 228.543 70.8684C228.543 66.5819 228.543 62.2886 228.543 57.9884C228.543 57.6414 228.543 57.274 228.543 56.7637ZM269.267 94.9137C269.615 95.1382 269.861 95.3423 270.148 95.5056C274.352 97.9142 278.563 100.323 282.78 102.731C285.34 104.201 287.961 104.222 290.499 102.793C295.352 100.037 300.184 97.2406 305.016 94.4238C307.534 92.9541 308.804 90.6884 308.824 87.8103C308.886 82.2991 308.886 76.7878 308.824 71.2766C308.804 68.2965 307.452 65.9899 304.791 64.4794C301.064 62.3566 297.358 60.1929 293.632 58.0497C292.915 57.6414 292.158 57.2332 291.298 56.7433C291.298 57.274 291.298 57.621 291.298 57.9884C291.298 62.3974 291.298 66.8268 291.277 71.2358C291.277 72.1339 291.216 73.0116 291.073 73.8894C290.09 79.8905 287.039 84.5444 281.777 87.6878C279.484 89.0554 277.15 90.3618 274.836 91.6886C273.014 92.75 271.171 93.8114 269.267 94.9137ZM237.818 40.7812C238.228 40.577 238.494 40.475 238.74 40.3321C242.568 38.1276 246.397 35.8823 250.267 33.739C256.675 30.1873 263.145 30.2282 269.554 33.6982C273.465 35.821 277.293 38.1276 281.143 40.3525C281.388 40.4954 281.654 40.5974 281.961 40.7403C281.982 40.475 282.002 40.3117 282.002 40.1484C282.016 34.9365 282.016 29.7247 282.002 24.5128C282.002 24.1454 281.941 23.778 281.859 23.431C281.347 21.1857 280.037 19.5323 278.03 18.3892C273.321 15.6744 268.592 12.9597 263.862 10.2653C261.221 8.75479 258.579 8.79562 255.938 10.2857C254.525 11.0818 253.133 11.8982 251.72 12.6943C248.322 14.6538 244.902 16.5726 241.524 18.5934C239.108 20.0426 237.839 22.2063 237.818 25.0435C237.818 29.9016 237.818 34.7528 237.818 39.5973C237.818 39.9443 237.818 40.2913 237.818 40.7812Z" fill="black"/>
<path d="M55.6553 51.5791C55.6349 50.2523 55.6349 48.9663 55.5734 47.6804C55.5325 47.1089 55.4506 46.4965 55.2663 45.9454C54.4883 43.6592 51.9494 42.8428 49.9429 44.2104C49.7382 44.3737 49.5334 44.537 49.2468 44.7411C48.3459 43.9858 47.445 43.251 46.4827 42.4549C47.5474 41.2506 48.8578 40.6383 50.3319 40.3525C52.0723 40.0259 53.7717 40.1688 55.3687 40.9036C57.7642 42.0059 59.0746 43.945 59.4022 46.4965C59.5455 47.6396 59.5251 48.8031 59.5455 49.9461C59.5865 51.375 59.7707 51.5995 61.204 51.6607C61.3268 51.6607 61.4701 51.6811 61.7158 51.722C61.7158 52.2323 61.7363 52.7426 61.7363 53.2529C61.7568 53.7836 61.7363 54.3143 61.7363 54.8246C61.0197 55.0695 24.7796 55.1512 23.0188 54.9266C23.0188 51.1913 23.0188 47.4355 23.0188 43.7205C20.05 42.8428 17.6954 44.5165 17.634 47.4967C17.593 49.6399 17.6339 51.7832 17.6135 53.9469C17.6135 54.253 17.593 54.5796 17.5725 54.9675C17.204 54.9879 16.8764 55.0083 16.5488 55.0083C13.4094 55.0219 10.2631 55.0219 7.10999 55.0083C3.13791 55.0083 0.107665 51.9669 0.00529217 47.9049C-0.0561317 46.0679 0.414785 44.3941 1.54089 42.904C1.62279 42.8087 1.71151 42.7135 1.80706 42.6182C1.84801 42.5774 1.92991 42.557 2.0937 42.4549C2.95364 43.1694 3.85452 43.9246 4.75541 44.6594C4.50971 45.333 4.16164 45.9454 4.03879 46.5986C3.7112 48.2111 3.9569 49.7216 5.2468 50.8442C5.69724 51.2321 6.35243 51.5791 6.92572 51.6199C9.13698 51.7015 11.3482 51.6403 13.6823 51.6403C13.6823 51.2525 13.7028 50.9055 13.7233 50.5585C13.7642 49.0684 13.6619 47.5783 13.8666 46.1087C14.3375 42.904 16.8764 40.5566 20.1114 40.3117C22.2203 40.1688 24.3496 40.2096 26.4585 40.1688C26.5814 40.1688 26.7042 40.23 26.9294 40.2709C26.9294 44.0267 26.9294 47.7825 26.9294 51.5791C31.3929 51.5791 35.754 51.5791 40.1765 51.5791C40.0946 49.9665 40.0742 48.354 39.9104 46.7619C39.767 45.231 38.7228 43.8634 36.8801 43.598C35.9792 43.4551 35.1807 43.6797 34.4436 44.1695C34.2184 44.3124 34.0341 44.4961 33.7065 44.7615C32.8057 44.0062 31.8843 43.2306 30.922 42.4549C31.9662 41.2915 33.1947 40.6791 34.5665 40.3933C36.8596 39.9239 39.0504 40.1892 40.9955 41.5976C42.8997 42.9652 43.8005 44.884 43.9234 47.1701C43.9643 48.1907 43.9029 49.2113 43.9234 50.2319C43.9439 51.1504 44.3943 51.6403 45.2338 51.6403C48.6121 51.6607 51.9904 51.6403 55.3687 51.6403C55.4915 51.6403 55.6144 51.5791 55.6553 51.5791Z" fill="black"/>
<path fill-rule="evenodd" clip-rule="evenodd" d="M160.322 51.4158C161.079 51.7016 164.376 51.7628 165.645 51.5383C165.522 51.2525 165.399 50.9871 165.297 50.7218C164.273 48.0478 164.458 45.4963 166.116 43.1081C166.853 42.0059 167.897 41.2506 169.126 40.7607C171.03 40.0259 172.995 39.9647 174.92 40.6587C177.336 41.516 178.913 43.2102 179.465 45.7208C179.998 48.1703 179.67 50.4564 178.053 52.4364C176.722 54.0693 174.982 54.9675 172.893 55.0083C169.085 55.0695 165.277 55.0083 161.468 55.0287C160.506 55.0287 159.748 54.6205 159.114 53.9469C158.991 53.804 158.848 53.6611 158.643 53.4162C157.087 55.0695 155.08 55.0491 153.033 55.0287C147.955 54.9879 142.898 55.0083 137.82 55.0287C137.103 55.0287 136.387 55.0491 135.773 54.5184C135.015 59.0499 132.845 61.0298 128.258 61.4176C128.258 60.3562 128.258 59.3356 128.258 58.213C128.422 58.1517 128.627 58.0497 128.832 58.0088C130.633 57.5802 131.719 56.2942 131.76 54.3959C131.801 53.2529 131.76 52.0894 131.76 50.9463C131.76 48.1975 131.76 45.4555 131.76 42.7203C131.76 42.3733 131.76 42.0059 131.76 41.5976C133.131 41.5976 134.36 41.5976 135.732 41.5976C135.732 41.9855 135.732 42.3325 135.732 42.6999C135.732 45.2037 135.738 47.7076 135.752 50.2115C135.752 50.436 135.732 50.681 135.752 50.9055C135.814 51.3341 136.039 51.6403 136.53 51.6403C137.881 51.6403 139.233 51.6403 140.687 51.6403C140.687 48.4152 140.687 45.2718 140.687 41.9855C141.895 41.9038 143.041 41.9446 144.27 41.965C144.27 43.0877 144.27 44.1287 144.27 45.3126C144.863 45.0268 145.17 44.639 145.478 44.292C146.563 43.1489 147.832 42.2712 149.286 41.6793C151.825 40.6587 154.405 40.3933 156.964 41.5364C159.318 42.5978 160.567 44.4961 160.997 47.0272C161.202 48.354 160.997 49.5787 160.526 50.783C160.445 50.9667 160.404 51.1708 160.322 51.4158ZM145.068 51.5178C145.15 51.5587 145.191 51.6199 145.252 51.6199C148.221 51.6403 151.21 51.6811 154.179 51.6199C155.653 51.5995 156.698 50.6401 157.025 49.1909C157.332 47.9049 157.087 46.7006 156.37 45.6188C155.653 44.5165 154.527 44.0879 153.299 44.1491C151.886 44.2308 150.596 44.7615 149.45 45.5984C147.464 47.0272 146.174 48.9868 145.13 51.1504C145.068 51.2729 145.089 51.3954 145.068 51.5178ZM168.655 47.5783C168.655 48.6602 168.839 49.3338 169.228 50.0482C170.354 52.171 173.753 52.1506 174.92 50.3544C175.964 48.7418 176.087 47.0884 175.227 45.3943C174.163 43.2918 171.378 42.9244 169.72 44.5982C168.901 45.4351 168.614 46.4557 168.655 47.5783Z" fill="black"/>
<path fill-rule="evenodd" clip-rule="evenodd" d="M103.238 42.3937C104.242 43.2102 105.143 43.945 106.043 44.6798C105.839 45.1289 105.613 45.5371 105.47 45.9658C104.856 47.762 105.061 49.4358 106.453 50.783C106.862 51.1912 107.518 51.5587 108.091 51.5995C109.893 51.7016 111.715 51.6403 113.619 51.6403C113.476 51.2933 113.373 51.0688 113.271 50.8238C112.186 47.8029 112.411 44.986 114.581 42.4958C115.503 41.4139 116.711 40.7607 118.123 40.4546C120.744 39.883 123.16 40.23 125.269 42.0263C126.375 42.9856 127.091 44.19 127.419 45.6188C127.972 48.0682 127.665 50.3952 126.047 52.416C124.737 54.0489 122.976 54.9675 120.888 54.9879C116.588 55.0559 112.288 55.0627 107.989 55.0083C104.508 54.9471 101.498 51.9669 101.293 48.5173C101.191 46.7006 101.375 44.9452 102.46 43.4143C102.686 43.0877 102.931 42.7815 103.238 42.3937ZM116.588 47.6396C116.526 48.4561 116.772 49.2929 117.223 50.089C118.287 51.8853 120.928 52.2527 122.464 50.8034C123.938 49.4154 124.184 46.7823 123.037 45.0881C122.198 43.8634 120.765 43.3122 119.311 43.6592C117.632 44.0675 116.608 45.5371 116.588 47.6396Z" fill="black"/>
<path fill-rule="evenodd" clip-rule="evenodd" d="M109.34 89.0758C109.258 89.3208 109.197 89.5249 109.135 89.7494C107.866 89.7494 106.617 89.7494 105.327 89.7494C105.327 82.2582 105.327 74.8079 105.327 67.2963C106.596 67.2963 107.866 67.2963 109.237 67.2963C109.237 70.0315 109.237 72.7259 109.237 75.5223C109.524 75.3998 109.667 75.3386 109.79 75.2569C112.186 73.624 115.646 74.0731 117.796 75.706C120.007 77.3798 121.195 79.6047 121.154 82.4215C121.113 86.5652 118.042 89.5453 114.848 90.1373C113.169 90.4639 111.49 90.3822 109.975 89.4024C109.79 89.28 109.565 89.1983 109.34 89.0758ZM117.223 81.8296C117.1 81.4214 116.956 80.6049 116.608 79.8905C115.339 77.3594 111.899 77.1553 110.364 79.0127C109.033 80.6049 108.848 82.3807 109.545 84.2586C110.609 87.2184 114.233 87.2796 115.83 85.7283C116.813 84.7893 117.161 83.585 117.223 81.8296Z" fill="black"/>
<path d="M79.7745 51.6403C81.0644 51.6403 82.3133 51.6403 83.5827 51.6403C84.3403 51.6607 84.8522 51.2729 85.0364 50.5585C85.1798 50.0686 85.2412 49.5175 85.2617 49.0072C85.2617 44.6594 85.2617 40.2913 85.2617 35.9435C85.2617 35.5761 85.2617 35.2291 85.2617 34.8209C86.5311 34.8209 87.7186 34.8209 88.9676 34.8209C88.9881 35.0658 89.029 35.3107 89.029 35.5557C89.0427 40.2504 89.0427 44.9384 89.029 49.6195C89.029 50.5789 88.9266 51.5383 88.5171 52.416C87.7596 54.0897 86.4082 54.9266 84.6065 55.0083C83.3166 55.0695 82.0267 55.0491 80.7368 55.0083C80.2863 54.9879 79.8564 54.8042 79.3445 54.6613C79.0579 56.6821 78.3412 58.4987 76.6623 59.8255C75.2701 60.9686 73.6525 61.3768 71.8098 61.4381C71.8098 60.3766 71.8098 59.3356 71.8098 58.213C72.0555 58.1517 72.3217 58.0497 72.6083 57.9884C73.8778 57.7027 74.7172 56.9066 75.0858 55.6819C75.311 54.9675 75.4338 54.2122 75.4338 53.457C75.4748 49.9053 75.4543 46.3332 75.4543 42.7611C75.4543 42.4141 75.4543 42.0467 75.4543 41.618C76.7442 41.618 77.9522 41.618 79.2421 41.618C79.2626 41.965 79.3036 42.3325 79.3036 42.6795C79.3036 45.1561 79.3036 47.6328 79.3036 50.1094C79.3036 50.6401 79.3036 51.1708 79.7745 51.6403Z" fill="black"/>
<path fill-rule="evenodd" clip-rule="evenodd" d="M134.974 75.5427C135.056 75.2569 135.097 75.0528 135.158 74.8079C136.407 74.8079 137.656 74.8079 138.885 74.8079C139.089 75.5631 139.171 87.4837 138.987 89.7698C138.373 89.7698 137.718 89.7903 137.083 89.8107C136.448 89.8107 135.834 89.8107 135.179 89.8107C135.117 89.5453 135.056 89.3208 135.015 89.0963C134.892 89.1167 134.79 89.0962 134.708 89.1575C130.122 92.3826 123.16 88.6064 123.14 82.4215C123.14 79.2373 124.43 76.7878 127.194 75.2569C129.63 73.9098 132.149 73.7669 134.606 75.3386C134.708 75.3998 134.831 75.4611 134.974 75.5427ZM127.03 82.2582C127.071 82.2719 127.105 82.2787 127.132 82.2787C127.132 82.5032 127.112 82.7481 127.132 82.9727C127.255 84.7485 128.463 86.1978 130.122 86.6264C131.862 87.0551 133.582 86.3815 134.483 84.8506C135.261 83.483 135.322 82.0337 134.872 80.5436C134.38 78.9515 132.906 77.8288 131.268 77.788C129.487 77.7472 128.013 78.7066 127.439 80.3599C127.235 80.9519 127.153 81.6255 127.03 82.2582Z" fill="black"/>
<path fill-rule="evenodd" clip-rule="evenodd" d="M16.2007 75.5835C16.2622 75.2774 16.3236 75.0732 16.385 74.8079C17.6135 74.8079 18.842 74.8079 20.1523 74.8079C20.1523 79.7884 20.1523 84.7281 20.1523 89.729C18.9239 89.729 17.7159 89.729 16.4259 89.729C16.3645 89.5453 16.2826 89.3208 16.1598 88.9738C14.0918 90.5251 11.7987 90.668 9.46457 89.8107C7.13047 88.9738 5.51297 87.2592 4.75541 84.9118C3.73168 81.7071 4.34592 78.7882 6.80287 76.3796C8.05182 75.1549 9.62837 74.5017 11.4097 74.2976C13.191 74.0731 14.7266 74.5834 16.2007 75.5835ZM16.4259 82.2991C16.2417 81.5846 16.1598 80.8294 15.8936 80.1354C15.3203 78.7066 14.1737 77.9717 12.6996 77.8084C11.2663 77.6656 10.0174 78.135 9.15745 79.3597C8.13372 80.8498 8.03135 82.4828 8.62511 84.1566C9.15745 85.6262 10.2221 86.5039 11.7577 86.6876C13.4571 86.8918 14.8289 86.3202 15.7093 84.8097C16.1393 84.0341 16.344 83.2176 16.4259 82.2991Z" fill="black"/>
<path fill-rule="evenodd" clip-rule="evenodd" d="M53.5874 75.3998C53.6284 75.2569 53.6693 75.0732 53.7512 74.8283C54.9592 74.8283 56.2082 74.8283 57.4571 74.8283C57.6823 75.4815 57.7438 88.2389 57.539 89.7494C56.3105 89.7494 55.0616 89.7494 53.7717 89.7494C53.7034 89.5453 53.6352 89.3276 53.5669 89.0963C53.485 89.1167 53.3827 89.1167 53.3212 89.1575C49.3901 91.9743 42.9611 89.5249 41.8964 83.8504C41.3641 80.9723 42.0807 78.4004 44.251 76.3796C46.1756 74.6038 48.4892 73.8689 51.11 74.4201C51.929 74.6038 52.6865 75.0324 53.5874 75.3998ZM49.7587 86.7081C51.5399 86.7081 52.8503 85.7691 53.4441 84.1157C53.8945 82.8706 53.8945 81.6663 53.4441 80.4416C52.9118 78.9311 51.8471 78.0126 50.2705 77.8288C48.694 77.6451 47.3426 78.1554 46.4418 79.5843C45.807 80.564 45.6023 81.6663 45.7251 82.789C46.0323 85.5854 47.875 86.7693 49.7587 86.7081Z" fill="black"/>
<path d="M69.7624 67.2759C71.0113 67.2759 72.1988 67.2759 73.5092 67.2759C73.5229 68.6231 73.5297 69.9634 73.5297 71.297C73.5297 72.6034 73.5297 73.9302 73.5297 75.359C73.7959 75.2365 74.0006 75.1549 74.1849 75.0528C77.0104 73.1545 82.0471 74.6854 82.989 78.6453C83.2142 79.523 83.378 80.462 83.378 81.3601C83.4394 83.932 83.3985 86.5039 83.3985 89.0758C83.3985 89.28 83.378 89.4637 83.3575 89.729C82.0881 89.729 80.8391 89.729 79.4878 89.729C79.4673 89.4024 79.4264 89.0554 79.4264 88.7288C79.4264 86.2998 79.4469 83.9116 79.4264 81.503C79.4264 80.9111 79.3445 80.3191 79.2216 79.7272C78.9964 78.6453 78.3003 78.033 77.2151 77.8288C75.5157 77.5227 74.062 78.4616 73.7549 80.1354C73.6116 80.809 73.5502 81.503 73.5502 82.197C73.5092 84.3811 73.5297 86.5448 73.5297 88.7288C73.5297 89.0554 73.5297 89.382 73.5297 89.7494C72.2193 89.7494 71.0113 89.7494 69.7624 89.7494C69.7624 82.2582 69.7624 74.8283 69.7624 67.2759Z" fill="black"/>
<path d="M160.588 67.2759C161.837 67.2759 163.024 67.2759 164.335 67.2759C164.355 68.6435 164.355 70.0315 164.355 71.3991C164.355 72.8143 164.355 74.2295 164.355 75.6448C164.355 77.0328 164.355 78.4208 164.355 79.9721C164.662 79.7476 164.867 79.6251 165.031 79.4822C166.362 78.1759 167.693 76.8695 168.962 75.5427C169.515 74.9916 170.068 74.7058 170.887 74.7466C172.156 74.8079 173.446 74.7671 174.838 74.9304C172.75 76.9715 170.661 78.9923 168.512 81.0743C170.764 83.9524 173.016 86.7693 175.391 89.8107C174.408 89.8107 173.63 89.8107 172.852 89.8107C172.095 89.7903 171.235 89.974 170.6 89.6882C170.006 89.4024 169.658 88.6268 169.208 88.0552C168.082 86.6264 166.976 85.1976 165.788 83.7075C165.358 84.1361 164.908 84.5036 164.58 84.9322C164.417 85.1363 164.376 85.4833 164.376 85.7487C164.335 86.7489 164.355 87.7286 164.355 88.7288C164.355 89.0554 164.355 89.3616 164.355 89.7494C163.045 89.7494 161.837 89.7494 160.588 89.7494C160.588 82.2582 160.588 74.8283 160.588 67.2759Z" fill="black"/>
<path d="M142.959 74.7671C144.126 74.7671 145.252 74.7466 146.378 74.7875C146.583 74.7875 146.767 75.0732 146.931 75.1957C147.689 74.9304 148.467 74.5629 149.286 74.3792C151.948 73.7669 155.838 75.4202 156.391 79.3393C156.452 79.7884 156.554 80.2375 156.554 80.7069C156.575 83.6463 156.575 86.5652 156.575 89.5045C156.575 89.5657 156.534 89.627 156.493 89.7494C155.264 89.7494 154.036 89.7494 152.685 89.7494C152.664 89.382 152.644 89.035 152.644 88.688C152.623 86.259 152.644 83.8096 152.623 81.3601C152.623 80.7478 152.541 80.115 152.398 79.523C152.173 78.6453 151.599 78.1146 150.699 77.9105C148.856 77.441 147.382 78.3187 147.013 80.1762C146.87 80.7682 146.808 81.4009 146.808 82.0337C146.788 84.2382 146.808 86.4427 146.808 88.6676C146.808 88.9942 146.808 89.3208 146.808 89.729C145.519 89.729 144.27 89.729 142.959 89.729C142.959 84.7893 142.959 79.87 142.959 74.7671Z" fill="black"/>
<path d="M58.2147 97.6897C58.2147 96.5466 58.2147 95.5056 58.2147 94.6075C58.9927 94.2197 59.7707 93.9951 60.3645 93.5256C61.5111 92.6683 61.8182 91.3824 61.8182 89.9944C61.8046 85.3268 61.8046 80.6525 61.8182 75.9714C61.8182 75.604 61.8182 75.257 61.8182 74.8283C63.1286 74.8283 64.3571 74.8283 65.6674 74.8283C65.6879 75.1549 65.7084 75.4407 65.7084 75.7264C65.7289 80.7069 65.7493 85.667 65.7084 90.6476C65.6879 94.1992 62.8829 97.3223 58.9927 97.7305C58.7675 97.7509 58.5423 97.7101 58.2147 97.6897Z" fill="black"/>
<path d="M24.1039 67.235C25.0662 67.235 25.9467 67.235 26.8475 67.235C27.1956 67.235 27.5641 67.235 27.9736 67.235C27.9736 74.7671 27.9736 82.197 27.9736 89.729C26.7042 89.729 25.4348 89.729 24.1039 89.729C24.1039 82.2787 24.1039 74.8283 24.1039 67.235Z" fill="black"/>
<path d="M92.4892 34.78C93.7791 34.78 95.0076 34.78 96.2156 34.78C96.4408 35.474 96.5022 53.5999 96.277 55.0083C95.6628 55.0083 95.0485 55.0083 94.4343 55.0083C93.7996 55.0083 93.1853 55.0083 92.4892 55.0083C92.4892 48.2723 92.4892 41.5772 92.4892 34.78Z" fill="black"/>
<path d="M70.2947 54.9675C69.0458 54.9675 67.8582 54.9675 66.6912 54.9675C66.466 54.2939 66.4045 36.3109 66.6093 34.8209C67.8173 34.8209 69.0048 34.8209 70.2947 34.8209C70.2947 41.516 70.2947 48.1907 70.2947 54.9675Z" fill="black"/>
<path d="M35.5697 89.8311C34.2184 89.8311 32.9899 89.8311 31.6591 89.8311C31.6386 89.5045 31.5977 89.2187 31.5977 88.933C31.5977 86.2998 31.5772 83.6463 31.6181 81.0131C31.6386 80.115 31.7615 79.176 32.0071 78.2983C32.56 76.4204 33.8499 75.2161 35.795 74.7671C37.3101 74.3996 38.8457 74.2568 40.4222 74.6446C40.4222 75.6856 40.4222 76.7266 40.4222 77.8901C39.9513 77.9105 39.5009 77.9105 39.0504 77.9309C38.6205 77.9513 38.1905 77.9309 37.7605 77.9921C36.2659 78.1759 35.5902 78.9515 35.5697 80.5028C35.5697 83.0543 35.5697 85.5854 35.5697 88.1165C35.5697 88.6676 35.5697 89.2187 35.5697 89.8311Z" fill="black"/>
<path d="M87.3501 74.8079C88.6195 74.8079 89.8275 74.8079 91.0969 74.8079C91.0969 79.8088 91.0969 84.7485 91.0969 89.7494C89.848 89.7494 88.64 89.7494 87.432 89.7494C87.2068 89.0962 87.1248 76.3388 87.3501 74.8079Z" fill="black"/>
<path d="M89.2133 72.0727C87.8824 72.0727 86.7768 71.0113 86.7768 69.6845C86.7768 68.3577 87.8824 67.2963 89.2133 67.2963C90.5646 67.2963 91.6702 68.3577 91.6702 69.6845C91.6702 71.0113 90.5646 72.0727 89.2133 72.0727Z" fill="black"/>
<path d="M63.7838 72.0523C62.3915 72.2564 61.2654 70.8071 61.3268 69.6845C61.4087 68.3577 62.3915 67.3167 63.7224 67.2963C65.1556 67.2759 66.1793 68.2556 66.1793 69.6641C66.1793 71.1541 65.2989 72.0523 63.7838 72.0523Z" fill="black"/>
<path d="M7.41711 62.7444C6.16816 62.7444 5.1649 61.7442 5.1649 60.5399C5.1649 59.3152 6.16816 58.315 7.41711 58.315C8.66606 58.315 9.66932 59.3152 9.66932 60.5399C9.66932 61.7442 8.66606 62.7444 7.41711 62.7444Z" fill="black"/>
<path d="M13.7847 62.7444C12.5358 62.7444 11.5325 61.7442 11.5325 60.5399C11.5325 59.3152 12.5358 58.315 13.7847 58.315C15.0337 58.315 16.0369 59.3152 16.0369 60.5399C16.0369 61.7442 15.0337 62.7444 13.7847 62.7444Z" fill="black"/>
<path d="M113.885 37.5152C113.844 38.8216 112.943 39.6177 111.531 39.5768C110.282 39.536 109.401 38.5562 109.442 37.3111C109.483 36.0864 110.486 35.1474 111.694 35.1474C112.923 35.127 114.029 36.168 113.885 37.5152Z" fill="black"/>
<path d="M52.8503 62.7648C51.6218 62.7648 50.6186 61.7646 50.6186 60.5399C50.6186 59.2948 51.6218 58.2946 52.8503 58.2946C54.0788 58.2946 55.0616 59.2948 55.0616 60.5399C55.0616 61.7646 54.0788 62.7648 52.8503 62.7648Z" fill="black"/>
</g>
<defs>
<clipPath id="clip0_53_55">
<rect width="318" height="113" fill="white"/>
</clipPath>
</defs>
</svg>
