<svg width="531" height="113" viewBox="0 0 531 113" fill="none" xmlns="http://www.w3.org/2000/svg">
<g clip-path="url(#clip0_54_111)">
<path fill-rule="evenodd" clip-rule="evenodd" d="M122.567 79.7327L140.13 33.6705H146.905L164.404 79.7327H158.286L153.418 67.2955H133.355L128.487 79.7327H122.567ZM135.064 62.0974H151.709L143.353 39.9209L135.064 62.0974ZM189.825 46.1854H195.22V79.7468H190.549L189.825 75.2726C187.852 77.7728 184.629 80.1423 179.104 80.1423C171.736 80.1423 165.88 75.9966 165.88 64.8765V46.1854H171.274V64.5446C171.274 71.5189 174.434 75.2056 180.025 75.2056C186.143 75.2056 189.825 70.5337 189.825 62.9661V46.1854ZM203.855 51.1151H197.804V46.1819H203.855V36.771H209.249V46.1819H217.933V51.1151H209.249V70.9221C209.249 73.7507 210.237 74.8065 213.132 74.8065H218.459V79.7397H212.606C206.16 79.7397 203.855 76.9112 203.855 70.9892V51.1151ZM251.478 61.0451V79.7327H246.084V61.3735C246.084 54.3992 242.726 50.7125 236.94 50.7125C230.688 50.7125 226.808 55.3844 226.808 62.952V79.7327H221.414V33.6705H226.808V51.7013C228.782 48.5443 232.203 45.7793 237.858 45.7793C245.36 45.7793 251.478 49.9251 251.478 61.0451ZM256.487 55.6563C256.487 42.5623 263.594 33.2856 273.987 33.2856C284.313 33.2856 291.419 42.5623 291.419 55.6563V57.7645C291.419 71.5154 284.313 80.1352 273.987 80.1352C263.594 80.1352 256.487 71.5154 256.487 57.7645V55.6563ZM285.827 55.8541C285.827 44.9318 281.09 38.3495 273.987 38.3495C266.817 38.3495 262.079 44.9318 262.079 55.8541V57.5668C262.079 68.489 266.817 75.0714 273.987 75.0714C281.093 75.0714 285.827 68.489 285.827 57.5668V55.8541ZM346.209 62.952C346.209 73.2174 339.367 80.1282 330.093 80.1282C324.434 80.1282 320.618 77.8258 318.581 74.6017L317.857 79.7327H313.187V33.6705H318.581V51.5706C320.816 48.4737 324.434 45.7793 330.093 45.7793C339.367 45.7793 346.209 52.0297 346.209 62.952ZM340.684 62.952C340.684 55.6493 336.207 50.5819 329.564 50.5819C322.987 50.5819 318.514 55.6493 318.514 62.8213C318.514 70.1911 322.987 75.3256 329.564 75.3256C336.207 75.3256 340.684 70.2582 340.684 62.952ZM346.008 46.1713H351.73L362.06 72.9526L372.057 46.1713H377.78L362.321 85.3898C360.217 90.7856 358.964 92.8902 354.229 92.8902H347.783V87.957H352.584C355.677 87.957 356.199 87.166 357.453 84.0091L359.094 79.9269L346.008 46.1713ZM418.092 80.1352C405.132 80.1352 396.119 70.2653 396.119 56.7087C396.119 43.1556 405.132 33.2856 418.092 33.2856C431.051 33.2856 440.064 43.1556 440.064 56.7087C440.064 70.2653 431.051 80.1352 418.092 80.1352ZM418.092 74.8701C427.694 74.8701 434.207 67.3025 434.207 56.7087C434.207 46.1148 427.694 38.5473 418.092 38.5473C408.486 38.5473 401.973 46.1148 401.973 56.7087C401.973 67.3025 408.486 74.8701 418.092 74.8701ZM445.455 33.6705H450.849V64.0043L467.688 46.1713H474.332L461.242 60.0563L475.254 79.7327H468.74L457.624 63.9407L450.849 70.915V79.7291H445.455V33.6705ZM481.753 51.1151H475.702V46.1819H481.753V36.771H487.147V46.1819H495.832V51.1151H487.147V70.9221C487.147 73.7507 488.136 74.8065 491.03 74.8065H496.358V79.7397H490.501C484.055 79.7397 481.753 76.9112 481.753 70.9892V51.1151ZM531 74.8065V79.7397H528.042C523.569 79.7397 522.054 77.8328 521.987 74.5417C519.883 77.568 516.529 80.1352 510.74 80.1352C503.372 80.1352 498.373 76.4521 498.373 70.3324C498.373 63.6194 503.044 59.8692 511.859 59.8692H521.726V57.5632C521.726 53.2233 518.634 50.5925 513.373 50.5925C508.636 50.5925 505.476 52.8278 504.82 56.2496H499.425C500.216 49.6673 505.543 45.7864 513.635 45.7864C522.188 45.7864 527.12 50.0628 527.12 57.8952V72.5677C527.12 74.3439 527.78 74.8065 529.291 74.8065H531ZM521.73 64.4069H511.333C506.532 64.4069 503.835 66.1866 503.835 70.0004C503.835 73.2916 506.662 75.5304 511.135 75.5304C517.846 75.5304 521.73 71.646 521.73 66.0525V64.4069ZM5.96613 49.0564V49.067L3.24431 49.5084C1.54272 49.7838 0 48.4772 0 46.754V17.7091C0 13.7717 2.38292 10.2193 6.02262 8.7326C13.3832 5.72747 26.5758 1.10855 40.5697 0.0209128C42.3631 -0.116807 43.3162 1.84659 43.0656 3.26617L42.0454 12.1721C38.9952 30.6866 24.4894 46.0053 5.96613 49.0564ZM50.9769 12.1685L50.9663 12.1579L49.9425 3.25204C49.7272 1.85718 50.6592 -0.130933 52.449 0.00678696C66.4465 1.09442 79.6496 5.71335 86.9996 8.71847C90.6393 10.2157 93.0223 13.7576 93.0223 17.695V46.7398C93.0223 48.4631 91.4795 49.7803 89.778 49.4943L87.0561 49.0528C68.5329 46.0018 54.027 30.6972 50.9769 12.1685ZM87.0455 57.1783C88.8601 56.977 92.8987 55.4551 92.7963 58.6897C90.1522 84.3304 64.5401 104.819 52.9044 112.673C51.577 113.555 49.9884 112.457 49.9884 110.857C49.9884 78.9982 61.7407 62.1716 87.0455 57.1783ZM5.97319 57.1925C31.2781 62.1857 43.0268 79.0123 43.0268 110.868C43.0268 112.468 41.4417 113.569 40.1143 112.687C28.475 104.833 2.86657 84.3445 0.222406 58.7038C0.120029 55.4692 4.15864 56.9912 5.97319 57.1925Z" fill="black"/>
</g>
<defs>
<clipPath id="clip0_54_111">
<rect width="531" height="113" fill="white"/>
</clipPath>
</defs>
</svg>
