<svg width="438" height="113" viewBox="0 0 438 113" fill="none" xmlns="http://www.w3.org/2000/svg">
<g clip-path="url(#clip0_53_31)">
<path d="M149.125 72.8222V40.1778C149.125 38.1689 150.75 36.5367 152.75 36.5367C154.75 36.5367 156.375 38.1689 156.375 40.1778V72.8222C156.375 74.8311 154.75 76.4633 152.75 76.4633C150.875 76.4633 149.125 74.8311 149.125 72.8222ZM190.625 74.2033L174.875 48.9667V72.8222C174.875 74.8311 173.25 76.4633 171.25 76.4633C169.25 76.4633 167.625 74.8311 167.625 72.8222V41.1822C167.625 38.5456 169.75 36.2856 172.5 36.2856H172.75C174.375 36.2856 176 37.1644 176.875 38.5456L192.5 63.4056V39.9267C192.5 37.9178 194.125 36.2856 196.125 36.2856C198.125 36.2856 199.75 37.9178 199.75 39.9267V71.5667C199.75 74.2033 197.625 76.4633 194.875 76.4633C193.125 76.4633 191.5 75.71 190.625 74.2033ZM225 43.3167V73.1989C225 75.0822 223.5 76.5889 221.625 76.5889H221.125C219.25 76.5889 217.75 75.0822 217.75 73.1989V43.3167H209.375C207.5 43.3167 206 41.81 206 39.9267C206 38.0433 207.5 36.5367 209.375 36.5367H233.5C235.375 36.5367 236.875 38.0433 236.875 39.9267C236.875 41.81 235.375 43.3167 233.5 43.3167H225ZM242.625 73.1989V39.6756C242.625 37.9178 244.125 36.4111 245.875 36.4111H267.75C269.5 36.4111 271 37.9178 271 39.6756C271 41.4333 269.5 42.94 267.75 42.94H249.875V52.2311H265.25C267 52.2311 268.5 53.7378 268.5 55.4956C268.5 57.2533 267 58.76 265.25 58.76H249.875V69.6833H267.75C269.5 69.6833 271 71.19 271 72.9478C271 74.7056 269.5 76.2122 267.75 76.2122H245.875C244.125 76.4633 242.625 75.0822 242.625 73.1989ZM301.625 74.3289L295.875 61.3967H287V72.9478C287 74.9567 285.375 76.5889 283.375 76.5889H283.25C281.25 76.5889 279.625 74.9567 279.625 72.9478V40.1778C279.625 38.1689 281.25 36.5367 283.25 36.5367H296.5C306 36.5367 310.375 42.5633 310.375 48.9667C310.375 54.3656 307.5 58.5089 303.125 60.1411L308.125 71.4411C309.125 73.8267 307.5 76.4633 304.875 76.4633C303.5 76.4633 302.125 75.71 301.625 74.3289ZM296.625 42.8144H287.125V54.7422H296.75C300.875 54.7422 303.25 52.6078 303.25 48.8411C303.125 45.7022 300.75 42.8144 296.625 42.8144ZM344.875 72.4456C341.875 75.4589 337.75 77.2167 333.5 77.2167C329.25 77.2167 325.25 75.8356 322.25 72.6967C317.875 68.3022 317.25 63.0289 317.25 56.5C317.25 49.9711 317.875 44.5722 322.25 40.3033C325.25 37.29 329.25 35.7833 333.5 35.7833C337.75 35.7833 341.875 37.4156 344.875 40.4289C345.875 41.5589 346.75 42.6889 347.375 44.07C348.5 46.4556 346.75 49.0922 344.125 49.0922C342.625 49.0922 341.375 48.2133 340.75 46.8322C340.5 46.0789 340 45.4511 339.5 44.8233C338.25 43.1911 336 42.3122 333.5 42.3122C331.25 42.3122 329 43.3167 327.375 44.9489C324.625 47.8367 324.625 52.7333 324.625 56.5C324.625 60.1411 324.625 65.1633 327.375 68.0511C329 69.6833 331.25 70.6878 333.5 70.6878C336 70.6878 338.25 69.8089 339.5 68.1767C340 67.5489 340.5 66.7955 340.75 66.0422C341.25 64.6611 342.625 63.7822 344.125 63.7822C346.75 63.7822 348.5 66.4189 347.375 68.8044C346.75 70.1856 345.875 71.4411 344.875 72.4456ZM383.75 72.6967C380.75 75.71 376.5 77.2167 372.25 77.2167C368 77.2167 363.875 75.71 360.75 72.6967C356.375 68.3022 355.75 63.0289 355.75 56.5C355.75 49.9711 356.5 44.5722 360.75 40.3033C363.75 37.29 368 35.7833 372.25 35.7833C376.5 35.7833 380.625 37.29 383.75 40.3033C388.125 44.6978 388.75 49.9711 388.75 56.5C388.875 63.0289 388.125 68.4278 383.75 72.6967ZM378.625 45.0744C377 43.4422 374.625 42.4378 372.375 42.4378C370.125 42.4378 367.625 43.4422 366.125 45.0744C363.375 47.9622 363.25 52.8589 363.25 56.6256C363.25 60.2667 363.375 65.1633 366.125 68.0511C367.75 69.6833 370.125 70.6878 372.375 70.6878C374.625 70.6878 377.125 69.6833 378.625 68.0511C381.375 65.1633 381.5 60.2667 381.5 56.6256C381.5 52.8589 381.375 47.8367 378.625 45.0744ZM430.875 72.9478V47.9622L421.5 73.45C421 74.9567 419.5 75.9611 417.875 75.9611C416.25 75.9611 414.875 74.9567 414.25 73.45L404.875 47.5856V72.9478C404.875 74.9567 403.25 76.4633 401.375 76.4633C399.375 76.4633 397.875 74.8311 397.875 72.9478V41.9356C397.875 38.9222 400.375 36.4111 403.375 36.4111H403.875C406.125 36.4111 408.25 37.7922 409 40.0522L418.125 64.9122L427.375 40.0522C428.125 37.9178 430.25 36.4111 432.5 36.4111C435.5 36.4111 438 38.9222 438 41.9356V72.9478C438 74.9567 436.375 76.4633 434.5 76.4633C432.375 76.4633 430.875 74.9567 430.875 72.9478ZM98.5 0H14.125C6.25 0 0 6.27778 0 14.0622V98.8122C0 106.722 6.25 113 14.125 113H98.5C106.25 113 112.5 106.722 112.5 98.9378V14.1878C112.5 6.27778 106.25 0 98.5 0ZM71.25 20.7167C71.25 18.5822 72.875 16.95 75 16.95C77.125 16.95 78.75 18.5822 78.75 20.7167V71.0644C78.75 73.1989 77.125 74.8311 75 74.8311C72.875 74.8311 71.25 73.1989 71.25 71.0644V20.7167ZM52.5 18.8333C52.5 16.6989 54.125 15.0667 56.25 15.0667C58.375 15.0667 60 16.6989 60 18.8333V73.45C60 75.5844 58.375 77.2167 56.25 77.2167C54.125 77.2167 52.5 75.5844 52.5 73.45V18.8333ZM33.75 20.7167C33.75 18.5822 35.375 16.95 37.5 16.95C39.625 16.95 41.25 18.5822 41.25 20.7167V71.0644C41.25 73.1989 39.625 74.8311 37.5 74.8311C35.375 74.8311 33.75 73.1989 33.75 71.0644V20.7167ZM15 28.25C15 26.1156 16.625 24.4833 18.75 24.4833C20.875 24.4833 22.5 26.1156 22.5 28.25V62.15C22.5 64.2844 20.875 65.9167 18.75 65.9167C16.625 65.9167 15 64.2844 15 62.15V28.25ZM96.25 85.7544C95.625 86.2567 81.75 97.9333 56.25 97.9333C30.75 97.9333 16.875 86.2567 16.25 85.7544C14.625 84.3733 14.5 81.9878 15.875 80.4811C17.25 78.8489 19.625 78.7233 21.125 80.1044C21.375 80.1044 33.75 90.4 56.25 90.4C79 90.4 91.25 80.1044 91.25 79.9789C92.875 78.5978 95.25 78.8489 96.5 80.3556C98 81.9878 97.75 84.3733 96.25 85.7544ZM97.5 62.15C97.5 64.2844 95.875 65.9167 93.75 65.9167C91.625 65.9167 90 64.2844 90 62.15V28.25C90 26.1156 91.625 24.4833 93.75 24.4833C95.875 24.4833 97.5 26.1156 97.5 28.25V62.15Z" fill="black"/>
</g>
<defs>
<clipPath id="clip0_53_31">
<rect width="438" height="113" fill="white"/>
</clipPath>
</defs>
</svg>
