<svg width="529" height="113" viewBox="0 0 529 113" fill="none" xmlns="http://www.w3.org/2000/svg">
<g clip-path="url(#clip0_53_19)">
<path d="M219.999 23.6001V91.4001H208.247V38.1959H208.09L187.093 91.4001H179.258L157.791 38.1959H157.634V91.4001H146.823V23.6001H163.745L183.176 73.8223H183.489L204.016 23.6001H219.999ZM229.714 28.7793C229.714 26.8959 230.341 25.3265 231.751 24.0709C233.161 22.8154 234.728 22.1876 236.608 22.1876C238.645 22.1876 240.369 22.8154 241.623 24.0709C242.876 25.3265 243.66 26.8959 243.66 28.7793C243.66 30.6626 243.033 32.232 241.623 33.4876C240.212 34.7432 238.645 35.3709 236.608 35.3709C234.571 35.3709 233.004 34.7432 231.751 33.4876C230.497 32.0751 229.714 30.5057 229.714 28.7793ZM242.406 42.7473V91.4001H230.967V42.7473H242.406ZM277.035 83.082C278.759 83.082 280.639 82.7682 282.676 81.8265C284.713 81.0418 286.594 79.9432 288.317 78.6876V89.3598C286.437 90.4584 284.4 91.2432 282.05 91.714C279.699 92.1848 277.192 92.4987 274.372 92.4987C267.164 92.4987 261.366 90.3015 256.979 85.7501C252.434 81.1987 250.241 75.3918 250.241 68.4862C250.241 60.639 252.591 54.2043 257.135 49.182C261.679 44.1598 268.104 41.6487 276.565 41.6487C278.759 41.6487 280.953 41.9626 282.99 42.4334C285.184 42.9043 286.907 43.689 288.161 44.3168V55.3029C286.437 54.0473 284.557 52.9487 282.833 52.3209C280.953 51.6932 279.073 51.2223 277.192 51.2223C272.648 51.2223 269.044 52.6348 266.224 55.6168C263.403 58.5987 262.15 62.5223 262.15 67.5445C262.15 72.4098 263.56 76.3334 266.224 79.0015C268.887 81.6695 272.491 83.082 277.035 83.082ZM320.753 41.9626C321.693 41.9626 322.477 41.9626 323.26 42.1195C324.044 42.2765 324.671 42.4334 325.141 42.5904V54.2043C324.514 53.7334 323.73 53.2626 322.477 52.9487C321.223 52.6348 319.97 52.3209 318.246 52.3209C315.426 52.3209 313.075 53.5765 311.195 55.9307C309.315 58.2848 308.218 61.8945 308.218 66.9168V91.4001H296.779V42.7473H308.218V50.4376H308.374C309.471 47.7695 311.038 45.7293 313.075 44.1598C315.269 42.7473 317.776 41.9626 320.753 41.9626ZM325.767 67.8584C325.767 59.8543 328.118 53.4195 332.505 48.7112C337.049 44.0029 343.317 41.6487 351.309 41.6487C358.83 41.6487 364.784 43.8459 369.015 48.3973C373.246 52.9487 375.44 59.0695 375.44 66.7598C375.44 74.607 373.089 80.8848 368.702 85.5932C364.158 90.3015 358.046 92.6557 350.212 92.6557C342.69 92.6557 336.736 90.4584 332.349 86.064C327.961 81.5126 325.767 75.3918 325.767 67.8584ZM337.676 67.3876C337.676 72.4098 338.773 76.3334 341.123 79.0015C343.474 81.6695 346.764 83.082 350.995 83.082C355.069 83.082 358.36 81.8265 360.554 79.0015C362.747 76.3334 363.844 72.4098 363.844 67.0737C363.844 61.8945 362.747 57.9709 360.554 55.1459C358.36 52.4779 355.069 51.0654 351.152 51.0654C346.921 51.0654 343.787 52.4779 341.437 55.3029C338.773 58.2848 337.676 62.2084 337.676 67.3876ZM392.519 55.6168C392.519 57.1862 392.989 58.5987 394.086 59.5404C395.183 60.482 397.377 61.5807 400.981 62.9932C405.525 64.8765 408.815 66.9168 410.539 69.114C412.419 71.4682 413.359 74.1362 413.359 77.4321C413.359 81.9834 411.636 85.5932 408.032 88.4182C404.585 91.2432 399.727 92.4987 393.773 92.4987C391.736 92.4987 389.542 92.1848 387.035 91.714C384.528 91.2432 382.491 90.6154 380.767 89.8307V78.5307C382.804 79.9432 385.155 81.1987 387.505 81.9834C389.855 82.7682 392.049 83.239 394.086 83.239C396.593 83.239 398.63 82.9251 399.727 82.1404C400.981 81.3557 401.607 80.257 401.607 78.5307C401.607 76.9612 400.981 75.7057 399.727 74.4501C398.474 73.3515 395.966 72.0959 392.519 70.6834C388.288 68.9571 385.311 66.9168 383.588 64.7195C381.864 62.5223 380.924 59.6973 380.924 56.2445C380.924 51.8501 382.647 48.2404 386.095 45.4154C389.542 42.5904 394.086 41.1779 399.57 41.1779C401.294 41.1779 403.174 41.3348 405.211 41.8057C407.248 42.2765 409.129 42.7473 410.539 43.2182V54.3612C408.972 53.4195 407.248 52.4779 405.211 51.6932C403.174 50.9084 401.137 50.5946 399.257 50.5946C397.063 50.5946 395.34 51.0654 394.243 51.8501C393.146 52.9487 392.519 54.0473 392.519 55.6168ZM418.217 67.8584C418.217 59.8543 420.567 53.4195 424.955 48.7112C429.499 44.0029 435.767 41.6487 443.758 41.6487C451.28 41.6487 457.234 43.8459 461.465 48.3973C465.695 52.9487 467.889 59.0695 467.889 66.7598C467.889 74.607 465.539 80.8848 461.151 85.5932C456.607 90.3015 450.496 92.6557 442.661 92.6557C435.14 92.6557 429.186 90.4584 424.798 86.064C420.567 81.5126 418.217 75.3918 418.217 67.8584ZM430.126 67.3876C430.126 72.4098 431.223 76.3334 433.573 79.0015C435.924 81.6695 439.214 83.082 443.445 83.082C447.519 83.082 450.809 81.8265 453.003 79.0015C455.197 76.3334 456.294 72.4098 456.294 67.0737C456.294 61.8945 455.197 57.9709 453.003 55.1459C450.809 52.4779 447.519 51.0654 443.602 51.0654C439.371 51.0654 436.237 52.4779 433.886 55.3029C431.379 58.2848 430.126 62.2084 430.126 67.3876ZM505.966 52.164H488.886V91.4001H477.291V52.164H469.143V42.7473H477.291V35.9987C477.291 30.9765 479.014 26.739 482.305 23.4432C485.596 20.1473 489.826 18.5779 494.997 18.5779C496.408 18.5779 497.661 18.7348 498.758 18.7348C499.855 18.7348 500.795 19.0487 501.578 19.3626V29.2501C501.265 29.0932 500.482 28.7793 499.541 28.4654C498.601 28.1515 497.504 27.9945 496.251 27.9945C493.9 27.9945 492.02 28.7793 490.767 30.1918C489.513 31.6043 488.886 33.9584 488.886 36.7834V42.5904H505.966V31.6043L517.405 28.1515V42.5904H529V52.007H517.405V74.764C517.405 77.7459 518.031 79.7862 518.971 81.0418C520.068 82.2973 521.792 82.9251 524.142 82.9251C524.769 82.9251 525.553 82.7682 526.493 82.4543C527.433 82.1404 528.216 81.8265 528.843 81.3557V90.7723C528.06 91.2432 526.963 91.5571 525.239 91.8709C523.516 92.1848 521.949 92.3418 520.225 92.3418C515.367 92.3418 511.764 91.0862 509.413 88.5751C507.063 86.064 505.809 82.1404 505.809 76.9612L505.966 52.164Z" fill="black"/>
<path d="M53.5895 1H0V54.675H53.5895V1Z" fill="#2B2B2B"/>
<path d="M112.82 1H59.2305V54.675H112.82V1Z" fill="#454545"/>
<path d="M53.5895 60.325H0V114H53.5895V60.325Z" fill="black"/>
<path d="M112.82 60.325H59.2305V114H112.82V60.325Z" fill="#121212"/>
</g>
<defs>
<clipPath id="clip0_53_19">
<rect width="529" height="113" fill="white"/>
</clipPath>
</defs>
</svg>
