<svg width="370" height="113" viewBox="0 0 370 113" fill="none" xmlns="http://www.w3.org/2000/svg">
<g clip-path="url(#clip0_53_43)">
<path d="M61.6257 7.60304L57.863 17.031L57.6121 17.6742L24.8656 14.1603L39.3784 0H44.3954C52.4226 0 58.1556 0.214379 58.6573 0.428771C60.0527 1.00397 61.0195 1.97135 61.631 3.44072C62.2058 4.8055 62.2058 6.20167 61.631 7.59783L61.6257 7.60304Z" fill="black"/>
<path d="M51.5917 32.8019L46.6478 45.2784C45.681 47.642 43.9982 48.7924 41.4531 48.7924C38.908 48.7924 37.2252 47.6472 36.2584 45.2784L35.0773 42.2665L38.9446 40.0441L51.5917 32.8019Z" fill="black"/>
<path d="M57.4344 18.0716L51.8112 32.1587L45.1061 36.0282L38.7304 39.6886L34.8996 41.8743L24.1131 14.8453L24.4737 14.5211L57.4344 18.0716Z" fill="black"/>
<path d="M82.8017 110.344C82.1903 111.274 81.3698 111.959 80.3664 112.388C79.6504 112.603 61.1606 112.749 38.1973 112.712L46.9405 104.932H56.5774L82.8017 110.307V110.344Z" fill="black"/>
<path d="M11.4294 70.0851L22.0331 97.4749L0 92.957V76.0358L0.141106 75.6802L11.4294 70.0851Z" fill="black"/>
<path d="M11.2883 69.6929L6.98724 71.8055L0.3606 75.105L6.98724 58.508L11.2883 69.6929Z" fill="black"/>
<path d="M23.1096 99.1273L23.1462 99.1953L23.2508 99.4829L23.2873 99.5561H30.1335L23.8622 98.2645L23.1096 99.1273Z" fill="black"/>
<path d="M46.2925 104.968L37.5493 112.749H28.3775L25.3673 105.005H46.2925V104.968Z" fill="black"/>
<path d="M22.8222 99.5561H0V93.391L2.18449 93.8198L22.216 97.9403L22.6445 99.0175L22.6811 99.1587L22.7856 99.4829L22.8222 99.5195V99.5561Z" fill="black"/>
<path d="M24.9022 104.858L24.9388 104.968L24.8656 104.858H24.9022Z" fill="black"/>
<path d="M24.9388 104.968L27.949 112.712C20.8886 112.712 14.9047 112.639 10.5723 112.603C4.08678 112.529 2.86911 112.425 2.72801 112.388C1.54692 111.886 0.648033 111.06 0.0418095 109.915V104.968H24.944H24.9388Z" fill="black"/>
<path d="M28.0169 112.927H27.9803L27.9124 112.712L28.0169 112.927Z" fill="black"/>
<path d="M24.9022 104.858L24.9388 104.968L24.8656 104.858H24.9022Z" fill="black"/>
<path d="M27.9124 112.712L28.0169 112.927H27.9803L27.9124 112.712Z" fill="black"/>
<path d="M33.0339 58.9001L11.6803 69.5099L9.03064 62.5919L7.2381 57.9328L14.8002 39.0036C15.767 36.64 17.4498 35.4896 19.9949 35.4896C22.54 35.4896 24.2228 36.6348 25.1896 39.0036L25.5136 39.7931C25.8377 40.6559 27.7347 45.3516 30.886 53.2737L33.1437 58.9001H33.0339Z" fill="black"/>
<path d="M8.99406 62.5919L11.6437 69.5099L8.95747 62.5919H8.99406ZM8.99406 62.5919L11.6437 69.5099L8.95747 62.5919H8.99406ZM8.99406 62.5919L11.6437 69.5099L8.95747 62.5919H8.99406ZM8.99406 62.5919L11.6437 69.5099L8.95747 62.5919H8.99406Z" fill="black"/>
<path d="M81.8715 73.4212L69.9404 83.9944L52.062 66.8588L70.9804 45.7804L81.5841 72.4539C81.5841 72.4539 81.6206 72.6317 81.6572 72.7415C81.6572 72.8147 81.6572 72.8827 81.6938 72.9193V73.0604C81.6938 73.0604 81.8036 73.3114 81.8349 73.4212H81.8715Z" fill="black"/>
<path d="M52.4174 99.5561H32.2448L24.2228 97.9037H24.1862L51.8112 67.1464L69.653 84.282L52.4174 99.5561Z" fill="black"/>
<path d="M70.8341 45.3516L51.8112 66.5764L51.5238 66.9006L23.3971 98.2331L22.932 98.7351L22.54 97.7311V97.6213H22.5034L19.4566 89.7725L11.79 69.9491L33.1803 59.3394L36.0807 66.6548C37.0841 69.1282 38.9133 70.3832 41.5629 70.4198C43.9251 70.4198 45.6497 69.306 46.721 67.23L57.9361 39.0872C58.9029 36.7237 60.5857 35.5733 63.1308 35.5733C65.6759 35.5733 67.3587 36.7185 68.3255 39.0872C68.6496 39.8768 68.9683 40.6664 69.2558 41.4508L70.8341 45.4301V45.3516Z" fill="black"/>
<path d="M82.8383 96.8684V99.5561H53.0654L82.0178 73.8866C82.5561 77.2228 82.8801 84.9618 82.9115 96.8317L82.8383 96.8684Z" fill="black"/>
<path d="M82.2269 73.097C82.2269 73.097 82.3 73.3114 82.3 73.4578L82.2269 73.097Z" fill="black"/>
<path d="M82.8383 104.968V109.915L58.7253 104.968H82.8749H82.8383Z" fill="black"/>
<path d="M39.0544 0.146413L30.3843 0.214377L28.7695 0.250985L26.6581 0.324199L25.4405 0.397398L24.7924 0.465378L24.4005 0.501985L24.1496 0.575184L23.789 0.752986L23.5016 0.899399L23.3605 0.967364L23.2194 1.07719L22.9999 1.21836L22.7856 1.40138L22.6079 1.54256L22.4303 1.75696L22.2474 1.93474L22.0697 2.15437L21.9286 2.29555L21.7822 2.47334L21.6045 2.79753L21.4269 3.08514L21.2805 3.40934L21.1394 3.76491L21.0663 3.9427L20.9983 4.2669L20.9252 4.5179L20.8886 4.7689L20.852 4.94669L20.8154 5.16108L20.7788 5.44867V5.91407L20.8154 6.13368L20.852 6.41605L20.8886 6.63568L20.9252 6.91804L20.9983 7.16904L21.1028 7.49324L21.3537 8.10505L21.7143 8.926L24.0033 14.6623L39.0544 0.146413Z" fill="black"/>
<path d="M133.536 45.6758C132.643 45.6758 132.245 46.2876 132.031 46.6432L119.886 69.6249L107.814 46.6432C107.563 46.1412 107.061 45.6758 106.309 45.6758C105.415 45.6758 104.662 46.4288 104.662 47.3596V78.9797C104.662 79.8739 105.415 80.6635 106.309 80.6635C107.202 80.6635 107.955 79.9105 107.955 78.9797V54.0266L118.381 73.7454C118.741 74.4618 119.384 74.7128 119.886 74.7128C120.497 74.7128 121.03 74.4252 121.391 73.7454L131.89 54.0266V78.9797C131.89 79.8739 132.643 80.6635 133.536 80.6635C134.43 80.6635 135.183 79.9105 135.183 78.9797V47.3596C135.183 46.4654 134.43 45.6758 133.536 45.6758Z" fill="black"/>
<path d="M166.926 45.3882C157.252 45.3882 151.342 51.1611 151.342 63.2036C151.342 75.2462 157.252 80.9511 166.926 80.9511C176.599 80.9511 182.51 75.1102 182.51 63.2036C182.51 51.2971 176.636 45.3882 166.926 45.3882ZM166.926 77.7979C159.296 77.7979 154.853 73.0656 154.853 63.2089C154.853 53.3521 159.296 48.5466 166.926 48.5466C174.556 48.5466 178.998 53.2789 178.998 63.2089C178.998 73.1388 174.556 77.7979 166.926 77.7979Z" fill="black"/>
<path d="M217.159 45.6758C216.547 45.6758 216.014 46 215.727 46.502L206.879 60.9133L198.031 46.502C197.744 46 197.169 45.6758 196.599 45.6758C195.669 45.6758 194.916 46.4288 194.916 47.3962C194.916 47.757 195.026 48.0393 195.167 48.2903L205.201 64.3174V78.8699C205.201 79.8373 205.954 80.5903 206.884 80.5903C207.814 80.5903 208.567 79.8373 208.567 78.8699V64.3174L218.601 48.2903C218.742 48.0393 218.852 47.7151 218.852 47.3962C218.852 46.4288 218.099 45.6758 217.169 45.6758H217.159Z" fill="black"/>
<path d="M254.384 78.1535L242.202 46.8576C241.951 46.2458 241.413 45.6758 240.556 45.6758C239.699 45.6758 239.192 46.251 238.941 46.8576L226.759 78.1535C226.649 78.3679 226.618 78.7287 226.618 78.9065C226.618 79.8007 227.37 80.6269 228.301 80.6269C229.163 80.6269 229.696 80.0517 229.947 79.4085L233.6 70.1217H247.538L251.154 79.4451C251.405 80.0883 251.943 80.6269 252.8 80.6269C253.84 80.6269 254.556 79.8007 254.556 78.9065C254.556 78.7653 254.52 78.4045 254.415 78.1535H254.379H254.384ZM234.676 67.0052L240.55 51.4801L246.498 67.0052H234.676Z" fill="black"/>
<path d="M272.659 54.0632C272.659 51.1611 274.666 48.5413 279.897 48.5413C284.089 48.5413 286.487 50.6539 287.993 52.5573C288.385 53.0592 288.855 53.2004 289.283 53.2004C290.177 53.2004 290.898 52.4841 290.898 51.5847C290.898 51.2239 290.789 50.9415 290.611 50.6173C288.5 47.4275 284.664 45.383 279.934 45.383C272.623 45.383 269.294 49.3989 269.294 54.058C269.294 66.0691 288.176 61.6245 288.176 71.0891C288.176 75.5338 285.092 77.7927 279.579 77.7927C275.173 77.7927 272.304 75.607 270.694 72.9872C270.407 72.4852 269.905 72.161 269.299 72.161C268.405 72.161 267.684 72.8774 267.684 73.7768C267.684 74.0644 267.721 74.2788 267.935 74.671C269.618 77.9705 273.882 80.9092 279.579 80.9092C287.282 80.9092 291.546 77.3953 291.546 71.0891C291.546 58.8635 272.665 62.4506 272.665 54.058L272.659 54.0632Z" fill="black"/>
<path d="M332.853 78.1535L320.671 46.8576C320.42 46.2458 319.882 45.6758 319.025 45.6758C318.168 45.6758 317.661 46.251 317.41 46.8576L305.228 78.1535C305.118 78.3679 305.087 78.7287 305.087 78.9065C305.087 79.8007 305.84 80.6269 306.77 80.6269C307.632 80.6269 308.165 80.0517 308.416 79.4085L312.069 70.1217H326.007L329.592 79.4451C329.843 80.0883 330.381 80.6269 331.238 80.6269C332.278 80.6269 332.994 79.8007 332.994 78.9065C332.994 78.7653 332.958 78.4045 332.853 78.1535ZM313.146 67.0052L319.02 51.4801L324.967 67.0052H313.146Z" fill="black"/>
<path d="M369.681 77.8293L360.546 65.4626C365.955 65.2116 369.467 61.0179 369.467 55.7836C369.467 50.5493 365.453 46.1046 359.935 46.1046H350.01C349.043 46.1046 348.328 46.8576 348.328 47.825V78.9065C348.328 79.8739 349.08 80.6269 350.01 80.6269C350.941 80.6269 351.693 79.8739 351.693 78.9065V65.4626H356.747L366.885 79.8007C367.277 80.4125 367.816 80.6269 368.317 80.6269C369.284 80.6269 370 79.8739 370 78.9065C370 78.5457 369.89 78.1535 369.639 77.8293H369.681ZM351.693 49.2211H359.898C363.483 49.2211 366.023 52.0187 366.023 55.747C366.023 59.4753 363.514 62.2729 360.039 62.2729H351.693V62.3094V49.2211Z" fill="black"/>
</g>
<defs>
<clipPath id="clip0_53_43">
<rect width="370" height="113" fill="white"/>
</clipPath>
</defs>
</svg>
