<svg width="406" height="113" viewBox="0 0 406 113" fill="none" xmlns="http://www.w3.org/2000/svg">
<g clip-path="url(#clip0_53_67)">
<path d="M55.3711 18.3969L36.9031 0L0 36.8265L36.9031 73.6857L55.3711 55.2561L36.9031 36.8265L55.3711 18.3969Z" fill="black"/>
<path d="M55.3699 18.4011L36.9068 36.8259L55.3699 55.2506L73.833 36.8259L55.3699 18.4011Z" fill="#262626"/>
<path d="M98.5067 44.9447H107.167C107.921 47.8581 110.414 49.5275 114.547 49.5275C118.877 49.5275 121.502 47.989 121.502 45.3375C121.502 42.7842 120.485 41.4748 113.99 41.2129C102.902 40.7546 99.458 37.1538 99.458 31.0324C99.458 24.1582 104.936 20.0991 114.154 20.0991C123.142 20.0991 128.226 24.2236 129.243 30.4105H120.78C119.96 28.5773 118.221 27.1043 114.088 27.1043C110.152 27.1043 107.724 28.4464 107.724 30.6724C107.724 32.9638 108.741 33.9131 115.039 34.175C126.324 34.6333 129.866 38.1686 129.866 44.9774C129.866 52.2772 124.191 56.6637 114.711 56.6637C104.805 56.6964 99.1956 51.9171 98.5067 44.9447Z" fill="black"/>
<path d="M153.419 49.1347C159.52 49.1347 163.227 44.8792 163.227 38.3323C163.227 31.9163 159.52 27.6608 153.419 27.6608C147.252 27.6608 143.611 31.9163 143.611 38.3323C143.611 44.8792 147.252 49.1347 153.419 49.1347ZM153.419 56.6964C142.462 56.6964 135.016 49.0038 135.016 38.3323C135.016 27.7262 142.462 20.0991 153.419 20.0991C164.44 20.0991 171.821 27.7262 171.821 38.3323C171.821 49.0038 164.44 56.6964 153.419 56.6964Z" fill="black"/>
<path d="M188.583 55.6816C181.695 55.6816 178.447 51.9826 178.447 46.2213V6.05591H186.91V45.403C186.91 47.367 187.927 48.2509 189.534 48.2509H193.176V55.6816H188.583Z" fill="black"/>
<path d="M223.813 51.4916C221.025 54.7978 216.99 56.6964 212.103 56.6964C204.263 56.6964 199.507 51.2952 199.507 43.2097V21.0811H207.97V41.2129C207.97 45.7303 210.069 49.0365 214.661 49.0365C218.237 49.0365 222.239 46.6141 223.781 43.1115V21.1138H232.244V55.7471H223.813V51.4916Z" fill="black"/>
<path d="M251.827 55.6816C244.446 55.6816 241.002 51.8844 241.002 46.1558V9.65672H249.465V21.0811H260.552V28.4791H249.465V45.0756C249.465 47.2361 250.613 48.2509 252.516 48.2509H260.552V55.6816H251.827Z" fill="black"/>
<path d="M274.658 6.05591H283.121V14.6324H274.658V6.05591ZM274.658 28.4791H266.719V21.0484H283.121V55.6816H274.658V28.4791Z" fill="black"/>
<path d="M308.805 49.1347C314.907 49.1347 318.613 44.8792 318.613 38.3323C318.613 31.9163 314.907 27.6608 308.805 27.6608C302.638 27.6608 298.997 31.9163 298.997 38.3323C298.997 44.8792 302.671 49.1347 308.805 49.1347ZM308.805 56.6964C297.849 56.6964 290.403 49.0038 290.403 38.3323C290.403 27.7262 297.849 20.0991 308.805 20.0991C319.827 20.0991 327.208 27.7262 327.208 38.3323C327.208 49.0038 319.86 56.6964 308.805 56.6964Z" fill="black"/>
<path d="M334.424 55.6816V21.0484H342.887V25.3694C345.741 21.9977 349.907 20.0991 354.926 20.0991C363.028 20.0991 367.916 25.5003 367.916 33.5203V55.6489H359.453V35.6153C359.453 31.0979 357.288 27.7917 352.335 27.7917C348.628 27.7917 344.495 30.2141 342.855 33.7167V55.6489H334.424V55.6816Z" fill="black"/>
<path d="M374.641 44.9447H383.3C384.055 47.8581 386.548 49.5275 390.681 49.5275C395.011 49.5275 397.635 47.989 397.635 45.3375C397.635 42.7842 396.618 41.4748 390.123 41.2129C379.036 40.7546 375.592 37.1538 375.592 31.0324C375.592 24.1582 381.07 20.0991 390.288 20.0991C399.275 20.0991 404.36 24.2236 405.377 30.4105H396.914C396.094 28.5773 394.355 27.1043 390.222 27.1043C386.286 27.1043 383.858 28.4464 383.858 30.6724C383.858 32.9638 384.875 33.9131 391.173 34.175C402.457 34.6333 406 38.1686 406 44.9774C406 52.2772 400.325 56.6637 390.845 56.6637C380.939 56.6964 375.329 51.9171 374.641 44.9447Z" fill="black"/>
<path d="M296.898 94.1776C296.898 95.1923 297.029 96.1089 297.292 96.9927C297.554 97.8766 297.915 98.6295 298.374 99.2842C298.833 99.9389 299.424 100.43 300.113 100.823C300.802 101.183 301.589 101.379 302.474 101.379C303.327 101.379 304.115 101.183 304.803 100.823C305.492 100.463 306.083 99.9389 306.575 99.2842C307.067 98.6295 307.428 97.8766 307.69 96.9927C307.953 96.1089 308.084 95.1923 308.084 94.1776C308.084 93.1628 307.953 92.2462 307.69 91.3624C307.428 90.4786 307.067 89.7257 306.575 89.071C306.083 88.449 305.492 87.9253 304.803 87.5652C304.115 87.2051 303.327 87.0087 302.474 87.0087C301.589 87.0087 300.802 87.2051 300.113 87.5652C299.424 87.9253 298.833 88.449 298.374 89.071C297.915 89.6929 297.521 90.4786 297.292 91.3624C297.029 92.2135 296.898 93.1628 296.898 94.1776ZM296.964 104.26H293.322V74.2422H296.964V87.4342C297.062 87.2051 297.259 86.845 297.587 86.4195C297.882 85.9939 298.276 85.5684 298.768 85.1428C299.26 84.7173 299.883 84.3572 300.605 84.0626C301.326 83.768 302.212 83.6043 303.196 83.6043C304.377 83.6043 305.492 83.8334 306.542 84.3244C307.592 84.8155 308.51 85.5029 309.265 86.4195C310.052 87.336 310.675 88.449 311.134 89.7584C311.594 91.0678 311.823 92.5736 311.823 94.243C311.823 95.9125 311.594 97.3856 311.134 98.695C310.675 100.004 310.052 101.117 309.265 102.034C308.477 102.95 307.559 103.638 306.542 104.129C305.492 104.62 304.377 104.849 303.196 104.849C302.179 104.849 301.326 104.685 300.605 104.391C299.883 104.096 299.26 103.736 298.768 103.343C298.276 102.95 297.882 102.558 297.587 102.132C297.292 101.739 297.095 101.412 296.964 101.183V104.26Z" fill="black"/>
<path d="M321.959 113H318.285L321.861 103.932L313.791 84.128H317.826L323.763 99.0878L329.668 84.128H333.44L321.959 113Z" fill="black"/>
<path d="M376.346 104.162C378.774 104.162 380.512 103.409 381.267 102.754V97.7129C380.709 98.1385 379.594 98.6295 378.15 98.6295C377.134 98.6295 376.379 98.4003 375.821 97.8766C375.362 97.4183 375.133 96.6327 375.133 95.5524V74.2094H368.966V80.5272H381.3V86.4849H368.966V97.0582C368.966 99.2187 369.622 100.921 370.803 102.132C372.049 103.474 373.952 104.162 376.346 104.162ZM395.208 104.162C398.652 104.162 401.342 102.918 403.146 101.117C404.59 99.7097 405.475 98.073 405.934 96.4035L400.456 94.5704C400.227 95.4215 399.768 96.3053 399.013 96.9927C398.127 97.8438 396.914 98.4331 395.175 98.4331C393.601 98.4331 392.092 97.8111 391.009 96.7636C389.927 95.6506 389.271 94.0139 389.271 91.9516C389.271 89.8566 389.927 88.2526 391.009 87.1396C392.092 86.0594 393.535 85.5029 395.109 85.5029C396.782 85.5029 397.963 86.0594 398.816 86.9105C399.505 87.5979 399.931 88.4817 400.227 89.3656L405.77 87.4997C405.344 85.863 404.458 84.2262 403.146 82.8841C401.276 81.051 398.554 79.7743 394.978 79.7743C391.665 79.7743 388.68 81.0182 386.515 83.1787C384.35 85.372 383.071 88.3835 383.071 91.9516C383.071 95.487 384.416 98.5313 386.614 100.725C388.811 102.918 391.862 104.162 395.208 104.162ZM355.779 104.162C358.895 104.162 361.487 103.18 363.16 101.543C364.406 100.299 365.161 98.5968 365.161 96.6327C365.161 94.865 364.505 93.261 363.291 92.0498C362.077 90.8386 360.339 89.9548 358.141 89.5293L354.532 88.8418C353.024 88.5472 352.203 87.8271 352.203 86.7795C352.203 85.4374 353.516 84.4881 355.615 84.4881C356.927 84.4881 358.042 84.9137 358.797 85.6666C359.256 86.1903 359.584 86.845 359.682 87.5652L364.865 86.3867C364.734 84.8809 364.012 83.6043 362.963 82.524C361.29 80.8546 358.666 79.7743 355.582 79.7743C352.728 79.7743 350.367 80.6909 348.726 82.1967C347.316 83.5061 346.529 85.2738 346.529 87.2378C346.529 88.9728 347.086 90.4131 348.202 91.5261C349.317 92.639 350.957 93.4902 353.122 93.9812L356.665 94.8323C358.436 95.2578 359.223 95.9125 359.223 97.0582C359.223 98.4986 357.911 99.3496 355.779 99.3496C354.237 99.3496 352.991 98.8259 352.171 98.0075C351.613 97.451 351.285 96.6981 351.252 95.847L345.938 97.0255C346.069 98.5967 346.824 100.004 347.939 101.117C349.71 103.049 352.564 104.162 355.779 104.162Z" fill="black"/>
</g>
<defs>
<clipPath id="clip0_53_67">
<rect width="406" height="113" fill="white"/>
</clipPath>
</defs>
</svg>
