<svg width="499" height="113" viewBox="0 0 499 113" fill="none" xmlns="http://www.w3.org/2000/svg">
<g clip-path="url(#clip0_54_110)">
<path d="M249.817 28.25C230.351 28.25 216.316 40.9625 216.316 60.0312C216.316 79.1 232.114 91.8125 251.581 91.8125C263.341 91.8125 273.709 87.1512 280.128 79.2942L266.639 71.4902C263.077 75.3922 257.664 77.6698 251.581 77.6698C243.135 77.6698 235.958 73.2558 233.296 66.1933H282.702C283.09 64.2158 283.319 62.1677 283.319 60.0136C283.319 40.9625 269.284 28.25 249.817 28.25ZM233.137 53.8516C235.341 46.8067 241.371 42.375 249.8 42.375C258.246 42.375 264.276 46.8067 266.462 53.8516H233.137ZM439.684 28.25C420.218 28.25 406.182 40.9625 406.182 60.0312C406.182 79.1 421.981 91.8125 441.447 91.8125C453.208 91.8125 463.576 87.1512 469.994 79.2942L456.506 71.4902C452.944 75.3922 447.531 77.6698 441.447 77.6698C433.001 77.6698 425.825 73.2558 423.163 66.1933H472.569C472.957 64.2158 473.186 62.1677 473.186 60.0136C473.186 40.9625 459.15 28.25 439.684 28.25ZM423.021 53.8516C425.226 46.8067 431.256 42.375 439.684 42.375C448.13 42.375 454.16 46.8067 456.347 53.8516H423.021ZM354.202 60.0312C354.202 70.625 361.114 77.6875 371.834 77.6875C379.099 77.6875 384.547 74.3858 387.351 69.0006L400.893 76.8223C395.286 86.1802 384.777 91.8125 371.834 91.8125C352.35 91.8125 338.333 79.1 338.333 60.0312C338.333 40.9625 352.368 28.25 371.834 28.25C384.777 28.25 395.268 33.8823 400.893 43.2402L387.351 51.0619C384.547 45.6767 379.099 42.375 371.834 42.375C361.131 42.375 354.202 49.4375 354.202 60.0312ZM499.635 8.82812V90.0469H483.765V8.82812H499.635ZM66.2805 0L131.433 113H1.12842L66.2805 0ZM229.17 8.82812L180.31 93.5781L131.45 8.82812H149.77L180.31 61.7969L210.849 8.82812H229.17ZM333.043 30.0156V47.1245C331.28 46.6125 329.41 46.2594 327.4 46.2594C317.156 46.2594 309.768 53.3219 309.768 63.9156V90.0469H293.899V30.0156H309.768V46.2594C309.768 37.29 320.189 30.0156 333.043 30.0156Z" fill="black"/>
</g>
<defs>
<clipPath id="clip0_54_110">
<rect width="499" height="113" fill="white"/>
</clipPath>
</defs>
</svg>
